<svg id="visual" viewBox="0 0 1920 500" width="1920" height="500" xmlns="http://www.w3.org/2000/svg" xmlns:xlink="http://www.w3.org/1999/xlink" version="1.1"><rect x="0" y="0" width="1920" height="500" fill="#22222a"></rect><path d="M0 215L137 268L274 208L411 223L549 149L686 253L823 239L960 259L1097 229L1234 210L1371 202L1509 281L1646 160L1783 162L1920 239L1920 501L1783 501L1646 501L1509 501L1371 501L1234 501L1097 501L960 501L823 501L686 501L549 501L411 501L274 501L137 501L0 501Z" fill="#797979"></path><path d="M0 305L137 310L274 200L411 300L549 260L686 294L823 235L960 245L1097 282L1234 205L1371 274L1509 269L1646 242L1783 290L1920 305L1920 501L1783 501L1646 501L1509 501L1371 501L1234 501L1097 501L960 501L823 501L686 501L549 501L411 501L274 501L137 501L0 501Z" fill="#6a6c6f"></path><path d="M0 280L137 346L274 359L411 334L549 281L686 274L823 338L960 270L1097 289L1234 307L1371 263L1509 250L1646 333L1783 349L1920 291L1920 501L1783 501L1646 501L1509 501L1371 501L1234 501L1097 501L960 501L823 501L686 501L549 501L411 501L274 501L137 501L0 501Z" fill="#5c5e66"></path><path d="M0 372L137 350L274 321L411 340L549 347L686 350L823 321L960 392L1097 384L1234 305L1371 375L1509 353L1646 346L1783 329L1920 345L1920 501L1783 501L1646 501L1509 501L1371 501L1234 501L1097 501L960 501L823 501L686 501L549 501L411 501L274 501L137 501L0 501Z" fill="#4e525c"></path><path d="M0 436L137 421L274 361L411 435L549 394L686 371L823 419L960 434L1097 358L1234 410L1371 364L1509 395L1646 374L1783 391L1920 421L1920 501L1783 501L1646 501L1509 501L1371 501L1234 501L1097 501L960 501L823 501L686 501L549 501L411 501L274 501L137 501L0 501Z" fill="#404552"></path><path d="M0 417L137 421L274 418L411 442L549 439L686 448L823 447L960 452L1097 424L1234 429L1371 441L1509 433L1646 447L1783 426L1920 413L1920 501L1783 501L1646 501L1509 501L1371 501L1234 501L1097 501L960 501L823 501L686 501L549 501L411 501L274 501L137 501L0 501Z" fill="#323949"></path></svg>