<svg id="visual" viewBox="0 0 1920 500" width="1920" height="500" xmlns="http://www.w3.org/2000/svg" xmlns:xlink="http://www.w3.org/1999/xlink" version="1.1"><rect x="0" y="0" width="1920" height="500" fill="#22222a"></rect><path d="M0 271L137 328L274 279L411 225L549 235L686 326L823 297L960 331L1097 249L1234 285L1371 246L1509 295L1646 249L1783 258L1920 321L1920 0L1783 0L1646 0L1509 0L1371 0L1234 0L1097 0L960 0L823 0L686 0L549 0L411 0L274 0L137 0L0 0Z" fill="#797979"></path><path d="M0 279L137 178L274 222L411 281L549 246L686 234L823 283L960 212L1097 245L1234 260L1371 271L1509 237L1646 263L1783 192L1920 294L1920 0L1783 0L1646 0L1509 0L1371 0L1234 0L1097 0L960 0L823 0L686 0L549 0L411 0L274 0L137 0L0 0Z" fill="#8d8f92"></path><path d="M0 237L137 234L274 173L411 215L549 228L686 183L823 184L960 204L1097 171L1234 170L1371 227L1509 153L1646 237L1783 202L1920 213L1920 0L1783 0L1646 0L1509 0L1371 0L1234 0L1097 0L960 0L823 0L686 0L549 0L411 0L274 0L137 0L0 0Z" fill="#a2a6ac"></path><path d="M0 189L137 136L274 179L411 106L549 130L686 112L823 128L960 126L1097 175L1234 126L1371 177L1509 121L1646 108L1783 125L1920 125L1920 0L1783 0L1646 0L1509 0L1371 0L1234 0L1097 0L960 0L823 0L686 0L549 0L411 0L274 0L137 0L0 0Z" fill="#b6bec6"></path><path d="M0 123L137 128L274 135L411 135L549 94L686 132L823 63L960 95L1097 111L1234 72L1371 99L1509 74L1646 115L1783 96L1920 63L1920 0L1783 0L1646 0L1509 0L1371 0L1234 0L1097 0L960 0L823 0L686 0L549 0L411 0L274 0L137 0L0 0Z" fill="#ccd6e1"></path><path d="M0 69L137 41L274 33L411 61L549 65L686 37L823 45L960 38L1097 43L1234 71L1371 60L1509 41L1646 75L1783 82L1920 54L1920 0L1783 0L1646 0L1509 0L1371 0L1234 0L1097 0L960 0L823 0L686 0L549 0L411 0L274 0L137 0L0 0Z" fill="#e1effd"></path></svg>