<svg id="visual" viewBox="0 0 1920 500" width="1920" height="500" xmlns="http://www.w3.org/2000/svg" xmlns:xlink="http://www.w3.org/1999/xlink" version="1.1"><rect x="0" y="0" width="1920" height="500" fill="#3d3e51"></rect><path d="M0 196L35.5 221C71 246 142 296 213.2 310.3C284.3 324.7 355.7 303.3 426.8 281.8C498 260.3 569 238.7 640 238.3C711 238 782 259 853.2 251.7C924.3 244.3 995.7 208.7 1066.8 217.2C1138 225.7 1209 278.3 1280 287.8C1351 297.3 1422 263.7 1493.2 260C1564.3 256.3 1635.7 282.7 1706.8 273.2C1778 263.7 1849 218.3 1884.5 195.7L1920 173L1920 0L1884.5 0C1849 0 1778 0 1706.8 0C1635.7 0 1564.3 0 1493.2 0C1422 0 1351 0 1280 0C1209 0 1138 0 1066.8 0C995.7 0 924.3 0 853.2 0C782 0 711 0 640 0C569 0 498 0 426.8 0C355.7 0 284.3 0 213.2 0C142 0 71 0 35.5 0L0 0Z" fill="#6b7792"></path><path d="M0 270L35.5 250.3C71 230.7 142 191.3 213.2 189.2C284.3 187 355.7 222 426.8 235.2C498 248.3 569 239.7 640 237.8C711 236 782 241 853.2 231.2C924.3 221.3 995.7 196.7 1066.8 189.3C1138 182 1209 192 1280 190.8C1351 189.7 1422 177.3 1493.2 192C1564.3 206.7 1635.7 248.3 1706.8 260.7C1778 273 1849 256 1884.5 247.5L1920 239L1920 0L1884.5 0C1849 0 1778 0 1706.8 0C1635.7 0 1564.3 0 1493.2 0C1422 0 1351 0 1280 0C1209 0 1138 0 1066.8 0C995.7 0 924.3 0 853.2 0C782 0 711 0 640 0C569 0 498 0 426.8 0C355.7 0 284.3 0 213.2 0C142 0 71 0 35.5 0L0 0Z" fill="#5c677f"></path><path d="M0 130L35.5 130.7C71 131.3 142 132.7 213.2 144.3C284.3 156 355.7 178 426.8 178.7C498 179.3 569 158.7 640 151.3C711 144 782 150 853.2 163C924.3 176 995.7 196 1066.8 188.2C1138 180.3 1209 144.7 1280 133.7C1351 122.7 1422 136.3 1493.2 145.5C1564.3 154.7 1635.7 159.3 1706.8 170.8C1778 182.3 1849 200.7 1884.5 209.8L1920 219L1920 0L1884.5 0C1849 0 1778 0 1706.8 0C1635.7 0 1564.3 0 1493.2 0C1422 0 1351 0 1280 0C1209 0 1138 0 1066.8 0C995.7 0 924.3 0 853.2 0C782 0 711 0 640 0C569 0 498 0 426.8 0C355.7 0 284.3 0 213.2 0C142 0 71 0 35.5 0L0 0Z" fill="#4e576c"></path><path d="M0 161L35.5 151.3C71 141.7 142 122.3 213.2 106.7C284.3 91 355.7 79 426.8 80.5C498 82 569 97 640 110C711 123 782 134 853.2 125.3C924.3 116.7 995.7 88.3 1066.8 78.7C1138 69 1209 78 1280 81.2C1351 84.3 1422 81.7 1493.2 77.2C1564.3 72.7 1635.7 66.3 1706.8 65.2C1778 64 1849 68 1884.5 70L1920 72L1920 0L1884.5 0C1849 0 1778 0 1706.8 0C1635.7 0 1564.3 0 1493.2 0C1422 0 1351 0 1280 0C1209 0 1138 0 1066.8 0C995.7 0 924.3 0 853.2 0C782 0 711 0 640 0C569 0 498 0 426.8 0C355.7 0 284.3 0 213.2 0C142 0 71 0 35.5 0L0 0Z" fill="#40485a"></path><path d="M0 108L35.5 97.7C71 87.3 142 66.7 213.2 61.7C284.3 56.7 355.7 67.3 426.8 69.7C498 72 569 66 640 67.5C711 69 782 78 853.2 75.5C924.3 73 995.7 59 1066.8 56.8C1138 54.7 1209 64.3 1280 69.3C1351 74.3 1422 74.7 1493.2 74C1564.3 73.3 1635.7 71.7 1706.8 76C1778 80.3 1849 90.7 1884.5 95.8L1920 101L1920 0L1884.5 0C1849 0 1778 0 1706.8 0C1635.7 0 1564.3 0 1493.2 0C1422 0 1351 0 1280 0C1209 0 1138 0 1066.8 0C995.7 0 924.3 0 853.2 0C782 0 711 0 640 0C569 0 498 0 426.8 0C355.7 0 284.3 0 213.2 0C142 0 71 0 35.5 0L0 0Z" fill="#323949"></path></svg>