<svg id="visual" viewBox="0 0 1920 500" width="1920" height="500" xmlns="http://www.w3.org/2000/svg" xmlns:xlink="http://www.w3.org/1999/xlink" version="1.1"><rect x="0" y="0" width="1920" height="500" fill="#48506a"></rect><path d="M0 207L35.5 225.8C71 244.7 142 282.3 213.2 300C284.3 317.7 355.7 315.3 426.8 304C498 292.7 569 272.3 640 264.2C711 256 782 260 853.2 267.8C924.3 275.7 995.7 287.3 1066.8 288.5C1138 289.7 1209 280.3 1280 259.5C1351 238.7 1422 206.3 1493.2 197.5C1564.3 188.7 1635.7 203.3 1706.8 205.3C1778 207.3 1849 196.7 1884.5 191.3L1920 186L1920 0L1884.5 0C1849 0 1778 0 1706.8 0C1635.7 0 1564.3 0 1493.2 0C1422 0 1351 0 1280 0C1209 0 1138 0 1066.8 0C995.7 0 924.3 0 853.2 0C782 0 711 0 640 0C569 0 498 0 426.8 0C355.7 0 284.3 0 213.2 0C142 0 71 0 35.5 0L0 0Z" fill="#6b7792"></path><path d="M0 234L35.5 232.7C71 231.3 142 228.7 213.2 224C284.3 219.3 355.7 212.7 426.8 216.7C498 220.7 569 235.3 640 230C711 224.7 782 199.3 853.2 193C924.3 186.7 995.7 199.3 1066.8 203.3C1138 207.3 1209 202.7 1280 187.3C1351 172 1422 146 1493.2 137.2C1564.3 128.3 1635.7 136.7 1706.8 151.7C1778 166.7 1849 188.3 1884.5 199.2L1920 210L1920 0L1884.5 0C1849 0 1778 0 1706.8 0C1635.7 0 1564.3 0 1493.2 0C1422 0 1351 0 1280 0C1209 0 1138 0 1066.8 0C995.7 0 924.3 0 853.2 0C782 0 711 0 640 0C569 0 498 0 426.8 0C355.7 0 284.3 0 213.2 0C142 0 71 0 35.5 0L0 0Z" fill="#5c657f"></path><path d="M0 184L35.5 168C71 152 142 120 213.2 123.2C284.3 126.3 355.7 164.7 426.8 166.2C498 167.7 569 132.3 640 117.3C711 102.3 782 107.7 853.2 125.7C924.3 143.7 995.7 174.3 1066.8 181.8C1138 189.3 1209 173.7 1280 151C1351 128.3 1422 98.7 1493.2 93.3C1564.3 88 1635.7 107 1706.8 122.2C1778 137.3 1849 148.7 1884.5 154.3L1920 160L1920 0L1884.5 0C1849 0 1778 0 1706.8 0C1635.7 0 1564.3 0 1493.2 0C1422 0 1351 0 1280 0C1209 0 1138 0 1066.8 0C995.7 0 924.3 0 853.2 0C782 0 711 0 640 0C569 0 498 0 426.8 0C355.7 0 284.3 0 213.2 0C142 0 71 0 35.5 0L0 0Z" fill="#4e546c"></path><path d="M0 117L35.5 101.7C71 86.3 142 55.7 213.2 56C284.3 56.3 355.7 87.7 426.8 95.3C498 103 569 87 640 81.5C711 76 782 81 853.2 77.2C924.3 73.3 995.7 60.7 1066.8 55.7C1138 50.7 1209 53.3 1280 56C1351 58.7 1422 61.3 1493.2 72.7C1564.3 84 1635.7 104 1706.8 113.8C1778 123.7 1849 123.3 1884.5 123.2L1920 123L1920 0L1884.5 0C1849 0 1778 0 1706.8 0C1635.7 0 1564.3 0 1493.2 0C1422 0 1351 0 1280 0C1209 0 1138 0 1066.8 0C995.7 0 924.3 0 853.2 0C782 0 711 0 640 0C569 0 498 0 426.8 0C355.7 0 284.3 0 213.2 0C142 0 71 0 35.5 0L0 0Z" fill="#3f435a"></path></svg>