<svg id="visual" viewBox="0 0 1920 500" width="1920" height="500" xmlns="http://www.w3.org/2000/svg" xmlns:xlink="http://www.w3.org/1999/xlink" version="1.1"><rect x="0" y="0" width="1920" height="500" fill="#3d3e51"></rect><path d="M0 240L35.5 242.7C71 245.3 142 250.7 213.2 248.5C284.3 246.3 355.7 236.7 426.8 244.3C498 252 569 277 640 282C711 287 782 272 853.2 255.7C924.3 239.3 995.7 221.7 1066.8 228.2C1138 234.7 1209 265.3 1280 278.8C1351 292.3 1422 288.7 1493.2 269.8C1564.3 251 1635.7 217 1706.8 203.2C1778 189.3 1849 195.7 1884.5 198.8L1920 202L1920 501L1884.5 501C1849 501 1778 501 1706.8 501C1635.7 501 1564.3 501 1493.2 501C1422 501 1351 501 1280 501C1209 501 1138 501 1066.8 501C995.7 501 924.3 501 853.2 501C782 501 711 501 640 501C569 501 498 501 426.8 501C355.7 501 284.3 501 213.2 501C142 501 71 501 35.5 501L0 501Z" fill="#6b7792"></path><path d="M0 322L35.5 315.8C71 309.7 142 297.3 213.2 291.5C284.3 285.7 355.7 286.3 426.8 294.3C498 302.3 569 317.7 640 312.7C711 307.7 782 282.3 853.2 288.5C924.3 294.7 995.7 332.3 1066.8 352.2C1138 372 1209 374 1280 359.5C1351 345 1422 314 1493.2 302.7C1564.3 291.3 1635.7 299.7 1706.8 307C1778 314.3 1849 320.7 1884.5 323.8L1920 327L1920 501L1884.5 501C1849 501 1778 501 1706.8 501C1635.7 501 1564.3 501 1493.2 501C1422 501 1351 501 1280 501C1209 501 1138 501 1066.8 501C995.7 501 924.3 501 853.2 501C782 501 711 501 640 501C569 501 498 501 426.8 501C355.7 501 284.3 501 213.2 501C142 501 71 501 35.5 501L0 501Z" fill="#606983"></path><path d="M0 283L35.5 299.2C71 315.3 142 347.7 213.2 366C284.3 384.3 355.7 388.7 426.8 390.3C498 392 569 391 640 382.5C711 374 782 358 853.2 356.8C924.3 355.7 995.7 369.3 1066.8 371.7C1138 374 1209 365 1280 369.5C1351 374 1422 392 1493.2 383C1564.3 374 1635.7 338 1706.8 313.8C1778 289.7 1849 277.3 1884.5 271.2L1920 265L1920 501L1884.5 501C1849 501 1778 501 1706.8 501C1635.7 501 1564.3 501 1493.2 501C1422 501 1351 501 1280 501C1209 501 1138 501 1066.8 501C995.7 501 924.3 501 853.2 501C782 501 711 501 640 501C569 501 498 501 426.8 501C355.7 501 284.3 501 213.2 501C142 501 71 501 35.5 501L0 501Z" fill="#555c75"></path><path d="M0 425L35.5 427C71 429 142 433 213.2 420.8C284.3 408.7 355.7 380.3 426.8 363.2C498 346 569 340 640 351C711 362 782 390 853.2 395.7C924.3 401.3 995.7 384.7 1066.8 383.8C1138 383 1209 398 1280 406.7C1351 415.3 1422 417.7 1493.2 406.2C1564.3 394.7 1635.7 369.3 1706.8 371.3C1778 373.3 1849 402.7 1884.5 417.3L1920 432L1920 501L1884.5 501C1849 501 1778 501 1706.8 501C1635.7 501 1564.3 501 1493.2 501C1422 501 1351 501 1280 501C1209 501 1138 501 1066.8 501C995.7 501 924.3 501 853.2 501C782 501 711 501 640 501C569 501 498 501 426.8 501C355.7 501 284.3 501 213.2 501C142 501 71 501 35.5 501L0 501Z" fill="#4a4f67"></path><path d="M0 426L35.5 419.5C71 413 142 400 213.2 396C284.3 392 355.7 397 426.8 401C498 405 569 408 640 418.3C711 428.7 782 446.3 853.2 451.3C924.3 456.3 995.7 448.7 1066.8 445C1138 441.3 1209 441.7 1280 445.5C1351 449.3 1422 456.7 1493.2 448.3C1564.3 440 1635.7 416 1706.8 413.8C1778 411.7 1849 431.3 1884.5 441.2L1920 451L1920 501L1884.5 501C1849 501 1778 501 1706.8 501C1635.7 501 1564.3 501 1493.2 501C1422 501 1351 501 1280 501C1209 501 1138 501 1066.8 501C995.7 501 924.3 501 853.2 501C782 501 711 501 640 501C569 501 498 501 426.8 501C355.7 501 284.3 501 213.2 501C142 501 71 501 35.5 501L0 501Z" fill="#3f435a"></path></svg>