<svg id="visual" viewBox="0 0 1920 500" width="1920" height="500" xmlns="http://www.w3.org/2000/svg" xmlns:xlink="http://www.w3.org/1999/xlink" version="1.1"><rect x="0" y="0" width="1920" height="500" fill="#3f435a"></rect><path d="M0 385L45.7 386.2C91.3 387.3 182.7 389.7 274.2 372.7C365.7 355.7 457.3 319.3 548.8 289.2C640.3 259 731.7 235 823 252.8C914.3 270.7 1005.7 330.3 1097 333C1188.3 335.7 1279.7 281.3 1371.2 249.7C1462.7 218 1554.3 209 1645.8 208.5C1737.3 208 1828.7 216 1874.3 220L1920 224L1920 501L1874.3 501C1828.7 501 1737.3 501 1645.8 501C1554.3 501 1462.7 501 1371.2 501C1279.7 501 1188.3 501 1097 501C1005.7 501 914.3 501 823 501C731.7 501 640.3 501 548.8 501C457.3 501 365.7 501 274.2 501C182.7 501 91.3 501 45.7 501L0 501Z" fill="#48506a" stroke-linecap="round" stroke-linejoin="miter"></path></svg>