<svg id="visual" viewBox="0 0 1920 500" width="1920" height="500" xmlns="http://www.w3.org/2000/svg" xmlns:xlink="http://www.w3.org/1999/xlink" version="1.1"><rect x="0" y="0" width="1920" height="500" fill="#48506a"></rect><path d="M0 294L45.7 297.2C91.3 300.3 182.7 306.7 274.2 319.5C365.7 332.3 457.3 351.7 548.8 355.7C640.3 359.7 731.7 348.3 823 330.5C914.3 312.7 1005.7 288.3 1097 287.5C1188.3 286.7 1279.7 309.3 1371.2 310.3C1462.7 311.3 1554.3 290.7 1645.8 271.5C1737.3 252.3 1828.7 234.7 1874.3 225.8L1920 217L1920 501L1874.3 501C1828.7 501 1737.3 501 1645.8 501C1554.3 501 1462.7 501 1371.2 501C1279.7 501 1188.3 501 1097 501C1005.7 501 914.3 501 823 501C731.7 501 640.3 501 548.8 501C457.3 501 365.7 501 274.2 501C182.7 501 91.3 501 45.7 501L0 501Z" fill="#707da9" stroke-linecap="round" stroke-linejoin="miter"></path></svg>